# xmcd
#
# Track frame offsets: 
#        183
#        9773
#        23525
#        38655
#        48675
#        60418
#        75370
#        89390
#        102928
#        116868
#        128880
#        142620
#        158600
#        170505
#        182483
#        197513
#        209553
#        221585
#        233885
#        244503
#        257470
#        270183
#        280528
#        292383
#        303920
#        321338
#        334083
#        345490
#
# Disc length: 4752 seconds
#
# Revision: 3
# Processed by: cddbd v1.5.2PL0 Copyright (c) Steve Scherf et al.
# Submitted via: ExactAudioCopy v1.1
#
DISCID=77128e1c
DTITLE=Carlene Carter - Musical Shapes and Blue Nun
DYEAR=1991
DGENRE=Country
TTITLE0=Cry
TTITLE1=Madness
TTITLE2=Baby Ride Easy
TTITLE3=Bandit Of Love
TTITLE4=I'm So Cool
TTITLE5=Appalachian Eyes
TTITLE6=Ring Of Fire
TTITLE7=Too Bad About Sandy
TTITLE8=That Very First Kiss
TTITLE9=Foggy Mountain Top
TTITLE10=Too Drunk (To Remember)
TTITLE11=Too Proud
TTITLE12=Oh How Happy
TTITLE13=Love Is A 4-Letter Verb
TTITLE14=That Boy
TTITLE15=300 Pounds Of Hongry
TTITLE16=Tougher Stuff
TTITLE17=I Need A Hit
TTITLE18=Rockababy
TTITLE19=Me And My .38
TTITLE20=Do Me Lover
TTITLE21=Too Many Teardrops
TTITLE22=Billy
TTITLE23=Born To Move
TTITLE24=Think Dirty
TTITLE25=If The Shoe Fits
TTITLE26=Home Run Hitter
TTITLE27=When You Comin' Back
EXTD=
EXTT0=
EXTT1=
EXTT2=
EXTT3=
EXTT4=
EXTT5=
EXTT6=
EXTT7=
EXTT8=
EXTT9=
EXTT10=
EXTT11=
EXTT12=
EXTT13=
EXTT14=
EXTT15=
EXTT16=
EXTT17=
EXTT18=
EXTT19=
EXTT20=
EXTT21=
EXTT22=
EXTT23=
EXTT24=
EXTT25=
EXTT26=
EXTT27=
PLAYORDER=
